<?xml version="1.0" encoding="utf-8"?>
<!-- Generator: Adobe Illustrator 27.6.1, SVG Export Plug-In . SVG Version: 6.00 Build 0)  -->
<svg version="1.1" id="Layer_1" xmlns="http://www.w3.org/2000/svg" xmlns:xlink="http://www.w3.org/1999/xlink" x="0px" y="0px"
	 viewBox="0 0 800 800" style="enable-background:new 0 0 800 800;" xml:space="preserve">
<style type="text/css">
	.st0{fill:#A0A0A0;}
	.st1{fill:#FFC13E;}
	.st2{fill:#39393A;}
</style>
<path class="st0" d="M154,318.6C-179.3,393.4,40.8,903,467.9,770.4S666.9,71.7,426.3,51S329.6,279.3,154,318.6L154,318.6z"/>
<path class="st1" d="M392.2,235.3c0,4.3,3.5,7.8,7.8,7.8s7.8-3.5,7.8-7.8s-3.5-7.8-7.8-7.8S392.2,231,392.2,235.3z"/>
<path class="st2" d="M312.7,581.6c1.6-0.5,3.2-1.1,4.8-1.6C316,580.5,314.4,581.1,312.7,581.6z M312.7,581.6
	c1.6-0.5,3.2-1.1,4.8-1.6C316,580.5,314.4,581.1,312.7,581.6z"/>
<path class="st1" d="M399.8,200.5c19.1,0,34.5,15.5,34.5,34.5s-15.5,34.5-34.5,34.5c-19.1,0-34.5-15.5-34.5-34.5
	S380.9,200.5,399.8,200.5 M399.8,184.8c-27.7,0-50.2,22.4-50.2,50.2s22.4,50.2,50.2,50.2S450,262.7,450,235S427.6,184.8,399.8,184.8
	L399.8,184.8z"/>
<path d="M570.9,413.7c0.3-6.8,0.5-13.6,0.5-20.5c0-140.3-67.3-264.9-171.3-343.4c-104,78.4-171.3,203-171.3,343.4
	c0,6.9,0.2,13.7,0.5,20.4c-43.8,43.8-70.8,104.1-70.8,170.9c0,48.2,14.1,93,38.4,130.7c23.7-38.9,58.4-70.4,99.8-90.1
	c30.5-14.5,64.6-22.7,100.6-22.7c37.7,0,73.4,8.9,104.9,24.8c41,20.5,75.2,52.9,98.1,92.5c26.1-38.6,41.3-85.1,41.3-135.2
	C641.6,517.7,614.5,457.4,570.9,413.7L570.9,413.7z M274.3,299.5c7.2-29.6,17.9-58.4,31.7-85.5c13.6-26.8,30.3-51.9,49.7-74.9
	c13.6-16.1,28.4-31.2,44.4-44.9c15.9,13.8,30.8,28.8,44.4,44.9c19.4,23,36.1,48.3,49.7,74.9c13.8,27.2,24.5,55.9,31.7,85.5
	c6.8,28,10.5,56.8,11.1,85.9c-39-26.8-86.2-42.5-137-42.5s-97.9,15.7-136.8,42.5C263.8,356.3,267.5,327.5,274.3,299.5z M203.5,650.5
	c-7.1-21.1-10.7-43.4-10.7-65.9c0-28,5.5-55.2,16.2-80.6c6.6-15.5,14.8-30,24.9-43.4c7.6,48,23,93.5,45.2,134.8
	C250.7,609.3,225.2,627.9,203.5,650.5z M488,583.8c-0.5-0.2-1.2-0.4-1.7-0.6c-0.3-0.2-0.7-0.2-1-0.4c-0.5-0.2-1-0.4-1.5-0.5
	c-0.6-0.2-1.2-0.4-1.8-0.6s-1.2-0.4-1.8-0.5l-0.7-0.2c-0.8-0.2-1.6-0.5-2.4-0.8c-0.9-0.3-1.9-0.5-2.7-0.9l-2.3-0.7
	c-0.2-0.1-0.3-0.1-0.5-0.2c-0.9-0.2-1.8-0.5-2.7-0.8c-0.9-0.2-1.9-0.5-2.7-0.7l-2.8-0.7l-2.8-0.7c-0.8-0.2-1.6-0.4-2.4-0.5
	c-0.9-0.2-1.9-0.4-2.8-0.6c-1-0.2-2-0.5-3-0.6H452c-0.7-0.2-1.5-0.3-2.2-0.5c-0.3-0.1-0.5-0.1-0.9-0.2c-0.9-0.2-1.7-0.3-2.7-0.5
	c-0.9-0.2-1.9-0.3-2.8-0.5l-4.2-0.7c-0.7-0.1-1.5-0.2-2.2-0.3c-0.6-0.1-1.2-0.2-2-0.3c-2-0.3-4-0.5-6-0.8c-0.9-0.1-1.8-0.2-2.7-0.3
	H426c-0.7-0.1-1.4-0.2-2.2-0.2c-0.9-0.1-1.6-0.2-2.5-0.2c-1.3-0.2-2.7-0.2-4-0.3c-0.6-0.1-1.2-0.1-1.8-0.2c-0.7-0.1-1.5-0.1-2.2-0.2
	c-0.3,0-0.6,0-0.9-0.1c-0.9-0.1-1.6-0.1-2.5-0.2c-0.4,0-0.8-0.1-1.2-0.1c-1-0.1-2-0.1-3-0.1c-0.6,0-1.2-0.1-1.8-0.1
	c-0.9,0-1.9,0-2.7-0.1h-10.9c-1.8,0-3.6,0.1-5.4,0.2c-0.7,0-1.5,0.1-2.2,0.1c-0.6,0-1.2,0.1-1.8,0.1c-1.1,0.1-2.2,0.2-3.2,0.2
	c-1.1,0.1-2.1,0.2-3.2,0.2c-1.1,0.1-2.1,0.2-3.2,0.3c-0.5,0-0.9,0.1-1.4,0.2l-6.1,0.7c-0.9,0.1-1.6,0.2-2.5,0.3
	c-0.8,0.1-1.6,0.2-2.4,0.3c-2.5,0.4-5,0.7-7.4,1.2c-0.5,0.1-1.1,0.2-1.6,0.3c-0.7,0.1-1.3,0.2-2,0.4c-0.9,0.2-1.8,0.3-2.7,0.5
	c-0.7,0.2-1.3,0.2-2,0.4c-0.3,0.1-0.6,0.1-0.9,0.2c-0.5,0.1-1.1,0.2-1.6,0.3c-0.9,0.2-1.9,0.4-2.8,0.6c-0.9,0.2-1.9,0.4-2.8,0.6
	c-0.2,0-0.3,0.1-0.5,0.1c-0.4,0.1-0.8,0.2-1.2,0.3c-0.9,0.2-1.8,0.5-2.7,0.7c-1,0.2-2,0.5-3,0.8c-0.3,0.1-0.7,0.2-1.1,0.3
	c-1,0.3-2.1,0.5-3.1,0.9c-1.2,0.3-2.3,0.7-3.6,1c-0.8,0.2-1.6,0.5-2.4,0.8c-1.6,0.5-3.2,1-4.8,1.6c-0.5,0.2-1.1,0.4-1.6,0.5
	c-11.7-21.5-21.4-44.1-28.9-67.3c-9.1-28.2-15-57.5-17.6-87.2c-0.5-5.2-0.8-10.4-1-15.6c-0.1-0.9-0.1-1.9-0.1-2.8
	c-0.1-0.9-0.1-1.9-0.1-2.8s-0.1-1.9-0.1-2.8s-0.1-1.9-0.1-2.9c14.7-10.9,30.6-20.2,47.7-27.3c28.2-12,58.2-18,89.1-18
	s60.9,6.1,89.1,18c17,7.2,33,16.3,47.7,27.3v0.1c0,0.8,0,1.5-0.1,2.3c0,1.1-0.1,2.2-0.1,3.4c0,0.5,0,1-0.1,1.6
	c-0.1,1.4-0.1,2.7-0.2,4.1c-0.2,5.2-0.6,10.4-1,15.6c-2.6,30.1-8.6,59.8-18,88.3C509.8,539.5,500,562.2,488,583.8L488,583.8z
	 M594.9,654.8c-21.5-23.4-47-42.7-75.2-57.2c22.7-42,38.7-88.1,46.4-137.1c10,13.4,18.3,27.8,24.8,43.4
	c10.8,25.5,16.2,52.7,16.2,80.6C607.2,608.8,603,632.4,594.9,654.8z"/>
<path class="st1" d="M400,640.1c6.8,0,19.3,17.9,19.3,47.2s-12.5,47.2-19.3,47.2s-19.3-17.9-19.3-47.2S393.2,640.1,400,640.1
	 M400,624.5c-19.3,0-34.9,28.1-34.9,62.8s15.6,62.8,34.9,62.8s34.9-28.1,34.9-62.8S419.3,624.5,400,624.5z"/>
</svg>
