<?xml version="1.0" encoding="utf-8"?>
<!-- Generator: Adobe Illustrator 27.6.1, SVG Export Plug-In . SVG Version: 6.00 Build 0)  -->
<svg version="1.1" id="Layer_1" xmlns="http://www.w3.org/2000/svg" xmlns:xlink="http://www.w3.org/1999/xlink" x="0px" y="0px"
	 viewBox="0 0 800 800" style="enable-background:new 0 0 800 800;" xml:space="preserve">
<style type="text/css">
	.st0{fill:#2F2F33;}
	.st1{fill:#FFFFFF;}
	.st2{fill:#FFDB5B;}
</style>
<path class="st0" d="M153.6,243.4h515.6v100.9l12.3,59.5l-12.3,49.8v144.1H153.6L153.6,243.4z"/>
<path class="st0" d="M672.4,347.3h-40v100.2h40v164.6c0,11.9-9.5,21.5-21.2,21.5H153.6c-11.7,0-21.2-9.6-21.2-21.5V239.8
	c0-11.9,9.5-21.5,21.2-21.5h497.7c11.7,0,21.2,9.6,21.2,21.5V347.3z M174.8,261.3v329.3h457.7V261.3H174.8L174.8,261.3z"/>
<path class="st0" d="M620.5,237.7l-38.4,10.4l-23.9-90.7L221.6,259.9l-13.4-38.5l357.2-107.1c11.2-3.4,23,3.1,26.3,14.5
	c0.1,0.2,0.1,0.4,0.2,0.5L620.5,237.7L620.5,237.7z M693.6,304.3c11.7,0,21.2,9.6,21.2,21.5v143.1c0,11.9-9.5,21.5-21.2,21.5H552.4
	c-50.7,0-91.8-41.6-91.8-93s41.1-93,91.8-93H693.6L693.6,304.3z M661.8,347.2H552.4c-27.3,0-49.4,22.4-49.4,50.1
	s22.1,50.1,49.4,50.1h109.4c5.9,0,10.6-4.8,10.6-10.7v-78.8C672.4,352,667.7,347.2,661.8,347.2L661.8,347.2z"/>
<path class="st0" d="M672.4,347.3h-40v100.2h40v164.6c0,11.9-9.5,21.5-21.2,21.5H153.6c-11.7,0-21.2-9.6-21.2-21.5V239.8
	c0-11.9,9.5-21.5,21.2-21.5h497.7c11.7,0,21.2,9.6,21.2,21.5V347.3z M174.8,261.3v329.3h457.7V261.3H174.8L174.8,261.3z"/>
<path class="st0" d="M620.5,237.7l-38.4,10.4l-23.9-90.7L221.6,259.9l-13.4-38.5l357.2-107.1c11.2-3.4,23,3.1,26.3,14.5
	c0.1,0.2,0.1,0.4,0.2,0.5L620.5,237.7L620.5,237.7z M693.6,304.3c11.7,0,21.2,9.6,21.2,21.5v143.1c0,11.9-9.5,21.5-21.2,21.5H552.4
	c-50.7,0-91.8-41.6-91.8-93s41.1-93,91.8-93H693.6L693.6,304.3z M661.8,347.2H552.4c-27.3,0-49.4,22.4-49.4,50.1
	s22.1,50.1,49.4,50.1h109.4c5.9,0,10.6-4.8,10.6-10.7v-78.8C672.4,352,667.7,347.2,661.8,347.2L661.8,347.2z"/>
<path class="st0" d="M672.4,347.3h-40v100.2h40v164.6c0,11.9-9.5,21.5-21.2,21.5H153.6c-11.7,0-21.2-9.6-21.2-21.5V239.8
	c0-11.9,9.5-21.5,21.2-21.5h497.7c11.7,0,21.2,9.6,21.2,21.5V347.3z M174.8,261.3v329.3h457.7V261.3H174.8L174.8,261.3z"/>
<path class="st0" d="M620.5,237.7l-38.4,10.4l-23.9-90.7L221.6,259.9l-13.4-38.5l357.2-107.1c11.2-3.4,23,3.1,26.3,14.5
	c0.1,0.2,0.1,0.4,0.2,0.5L620.5,237.7L620.5,237.7z M693.6,304.3c11.7,0,21.2,9.6,21.2,21.5v143.1c0,11.9-9.5,21.5-21.2,21.5H552.4
	c-50.7,0-91.8-41.6-91.8-93s41.1-93,91.8-93H693.6L693.6,304.3z M661.8,347.2H552.4c-27.3,0-49.4,22.4-49.4,50.1
	s22.1,50.1,49.4,50.1h109.4c5.9,0,10.6-4.8,10.6-10.7v-78.8C672.4,352,667.7,347.2,661.8,347.2L661.8,347.2z"/>
<path class="st0" d="M357.4,219l199.4-62.1l18.9,67.8L357.4,219z"/>
<path class="st1" d="M153.6,243.4h515.6v100.9l12.3,59.5l-12.3,49.8v144.1H153.6L153.6,243.4z"/>
<path class="st0" d="M672.4,347.3h-40v100.2h40v164.6c0,11.9-9.5,21.5-21.2,21.5H153.6c-11.7,0-21.2-9.6-21.2-21.5V239.8
	c0-11.9,9.5-21.5,21.2-21.5h497.7c11.7,0,21.2,9.6,21.2,21.5V347.3z M174.8,261.3v329.3h457.7V261.3H174.8L174.8,261.3z"/>
<path class="st0" d="M620.5,237.7l-38.4,10.4l-23.9-90.7L221.6,259.9l-13.4-38.5l357.2-107.1c11.2-3.4,23,3.1,26.3,14.5
	c0.1,0.2,0.1,0.4,0.2,0.5L620.5,237.7L620.5,237.7z M693.6,304.3c11.7,0,21.2,9.6,21.2,21.5v143.1c0,11.9-9.5,21.5-21.2,21.5H552.4
	c-50.7,0-91.8-41.6-91.8-93s41.1-93,91.8-93H693.6L693.6,304.3z M661.8,347.2H552.4c-27.3,0-49.4,22.4-49.4,50.1
	s22.1,50.1,49.4,50.1h109.4c5.9,0,10.6-4.8,10.6-10.7v-78.8C672.4,352,667.7,347.2,661.8,347.2L661.8,347.2z"/>
<path class="st0" d="M672.4,347.3h-40v100.2h40v164.6c0,11.9-9.5,21.5-21.2,21.5H153.6c-11.7,0-21.2-9.6-21.2-21.5V239.8
	c0-11.9,9.5-21.5,21.2-21.5h497.7c11.7,0,21.2,9.6,21.2,21.5V347.3z M174.8,261.3v329.3h457.7V261.3H174.8L174.8,261.3z"/>
<path class="st0" d="M620.5,237.7l-38.4,10.4l-23.9-90.7L221.6,259.9l-13.4-38.5l357.2-107.1c11.2-3.4,23,3.1,26.3,14.5
	c0.1,0.2,0.1,0.4,0.2,0.5L620.5,237.7L620.5,237.7z M693.6,304.3c11.7,0,21.2,9.6,21.2,21.5v143.1c0,11.9-9.5,21.5-21.2,21.5H552.4
	c-50.7,0-91.8-41.6-91.8-93s41.1-93,91.8-93H693.6L693.6,304.3z M661.8,347.2H552.4c-27.3,0-49.4,22.4-49.4,50.1
	s22.1,50.1,49.4,50.1h109.4c5.9,0,10.6-4.8,10.6-10.7v-78.8C672.4,352,667.7,347.2,661.8,347.2L661.8,347.2z"/>
<path class="st2" d="M357.4,219l199.4-62.1l18.9,67.8L357.4,219z"/>
<path class="st1" d="M662,347.7H552.7c-27.3,0-49.4,22.4-49.4,50.1s22.1,50.1,49.4,50.1H662c5.9,0,10.6-4.8,10.6-10.7v-78.8
	C672.6,352.4,667.9,347.7,662,347.7z"/>
<path class="st0" d="M536.2,395.7c0,11.9,9.5,21.5,21.2,21.5s21.2-9.6,21.2-21.5c0-11.9-9.5-21.5-21.2-21.5S536.2,383.8,536.2,395.7
	z"/>
</svg>
