<?xml version="1.0" encoding="utf-8"?>
<!-- Generator: Adobe Illustrator 27.6.1, SVG Export Plug-In . SVG Version: 6.00 Build 0)  -->
<svg version="1.1" id="Layer_1" xmlns="http://www.w3.org/2000/svg" xmlns:xlink="http://www.w3.org/1999/xlink" x="0px" y="0px"
	 viewBox="0 0 800 800" style="enable-background:new 0 0 800 800;" xml:space="preserve">
<style type="text/css">
	.st0{fill:#FFDB5B;}
	.st1{fill:#333333;}
	.st2{fill:#FFFFFF;}
</style>
<path class="st0" d="M130.6,319.2h91.9c24.7,0,44.6,20,44.6,44.6v157.7c0,24.7-20,44.6-44.6,44.6h-91.9c-24.7,0-44.6-20-44.6-44.6
	V363.8C86,339.2,106,319.2,130.6,319.2z"/>
<path class="st1" d="M222.5,588.6h-91.9c-37,0-67-30-67-67V363.8c0-37,30-67,67-67h91.9c37,0,67,30,67,67v157.7
	C289.5,558.6,259.5,588.6,222.5,588.6L222.5,588.6z M130.6,341.6c-12.3,0-22.3,10-22.3,22.3v157.7c0,12.3,10,22.3,22.3,22.3h91.9
	c12.3,0,22.3-10,22.3-22.3V363.8c0-12.3-10-22.3-22.3-22.3L130.6,341.6L130.6,341.6z"/>
<path class="st0" d="M563.4,319.2h91.9c24.7,0,44.6,20,44.6,44.6v157.7c0,24.7-20,44.6-44.6,44.6h-91.9c-24.7,0-44.6-20-44.6-44.6
	V363.8C518.7,339.2,538.7,319.2,563.4,319.2z"/>
<path class="st1" d="M655.2,588.6h-91.9c-37,0-67-30-67-67V363.8c0-37,30-67,67-67h91.9c37,0,67,30,67,67v157.7
	C722.2,558.6,692.1,588.6,655.2,588.6L655.2,588.6z M563.4,341.6c-12.3,0-22.3,10-22.3,22.3v157.7c0,12.3,10,22.3,22.3,22.3h91.9
	c12.3,0,22.3-10,22.3-22.3V363.8c0-12.3-10-22.3-22.3-22.3L563.4,341.6L563.4,341.6z"/>
<path class="st1" d="M590.5,336.2V166.5c0-17.3-14.1-31.4-31.4-31.4H224.6c-14.8,0-26.7,12-26.7,26.7v174.4h-46V133.6
	c0-24.5,19.8-44.4,44.4-44.4h392.3c24.5,0,44.4,19.8,44.4,44.4v202.7H590.5z M167.4,588.1l31.2-31.9l84.2,82.4l-31.2,31.9
	L167.4,588.1z"/>
<path class="st2" d="M286.9,624.9h156.2v44.6H286.9V624.9z"/>
<path class="st1" d="M454.3,714.2H275.7c-18.4,0-33.5-15-33.5-33.5v-67c0-18.4,15-33.5,33.5-33.5h178.6c18.4,0,33.5,15,33.5,33.5v67
	C487.8,699.2,472.8,714.2,454.3,714.2z M286.9,669.5h156.2v-44.6H286.9V669.5z"/>
</svg>
