<?xml version="1.0" encoding="utf-8"?>
<!-- Generator: Adobe Illustrator 27.6.1, SVG Export Plug-In . SVG Version: 6.00 Build 0)  -->
<svg version="1.1" id="Layer_1" xmlns="http://www.w3.org/2000/svg" xmlns:xlink="http://www.w3.org/1999/xlink" x="0px" y="0px"
	 viewBox="0 0 800 800" style="enable-background:new 0 0 800 800;" xml:space="preserve">
<style type="text/css">
	.st0{fill:#A0A0A0;}
	.st1{fill:#151B28;}
	.st2{fill:#FFFFFF;}
	.st3{fill:#FFC13E;}
</style>
<path class="st0" d="M572,312C417.7,278.1,544.1,64.1,332.7,81.9s-411.9,504.5-36.6,618.5S864.9,376.2,572,312z"/>
<path class="st1" d="M595.2,417.6c-0.5,0-1.1-0.1-1.6-0.2c-3.9-0.9-6.3-4.8-5.4-8.7c19.1-80.9-31.2-162.1-112.1-181.2
	c-39.1-9.2-79.6-2.7-113.8,18.5s-58.1,54.4-67.3,93.6c-0.9,3.9-4.8,6.3-8.7,5.4c-3.9-0.9-6.3-4.8-5.4-8.7
	c10.1-43,36.3-79.4,73.8-102.6s81.8-30.5,124.8-20.3c88.7,20.9,143.8,109.9,122.9,198.6C601.4,415.4,598.4,417.6,595.2,417.6
	L595.2,417.6z"/>
<path class="st2" d="M557.3,283.5c-4.6,0-9.1-2-12.2-5.3c-19.1-20.7-43.8-35.1-71.3-41.6c-10.7-2.5-21.6-3.8-32.5-3.8
	c-17.2,0-34.1,3.1-50.3,9.3c-2,0.7-3.9,1.1-5.9,1.1c-1.2,0-2.6-0.2-3.8-0.5c-5.4-1.2-9.7-5.1-11.7-10.2c-3.3-8.5,1-18.1,9.5-21.4
	c20-7.7,40.9-11.5,62.2-11.5c13.4,0,27,1.6,40.2,4.7c34.1,8,64.5,25.8,88.1,51.4c6.2,6.7,5.8,17.2-0.9,23.4
	C565.5,282,561.6,283.5,557.3,283.5L557.3,283.5z"/>
<path class="st1" d="M441.2,206.9c12.9,0,25.8,1.5,38.5,4.5c32.6,7.7,61.8,24.7,84.5,49.2c3.5,3.8,3.3,9.7-0.5,13.2
	c-1.8,1.6-4.1,2.5-6.3,2.5c-2.5,0-5-1-6.9-3c-20.1-21.8-46.1-36.9-75-43.7c-11.3-2.7-22.8-4-34.2-4c-18,0-35.9,3.3-52.9,9.8
	c-1.1,0.4-2.3,0.6-3.4,0.6c-0.7,0-1.4-0.1-2.1-0.2c-2.9-0.7-5.5-2.7-6.6-5.8c-1.9-4.8,0.5-10.2,5.4-12
	C400.9,210.6,421,206.9,441.2,206.9 M441.2,192.4c-22.2,0-43.9,4.1-64.8,12c-12.3,4.7-18.4,18.5-13.8,30.8
	c2.8,7.3,9.1,12.8,16.8,14.7c1.8,0.4,3.6,0.6,5.5,0.6c2.9,0,5.8-0.5,8.5-1.6h0.1c15.3-5.9,31.4-8.8,47.7-8.8
	c10.3,0,20.7,1.2,30.9,3.6c26.2,6.2,49.5,19.8,67.7,39.5c4.5,4.8,10.9,7.7,17.5,7.7c6,0,11.7-2.3,16.2-6.3c9.7-8.9,10.2-24,1.3-33.7
	c-24.6-26.6-56.3-45.2-91.8-53.5C469.4,194.1,455.3,192.4,441.2,192.4L441.2,192.4z"/>
<path class="st0" d="M388.4,235.4c27.8-10.6,58-12.7,87.1-5.8c29,6.8,54.9,22,75,43.8c3.5,3.8,9.4,4.1,13.2,0.5
	c1.6-1.5,2.4-3.4,2.7-5.5c-0.2-0.3-0.4-0.8-0.6-1.1c-22.7-24.5-51.9-41.6-84.5-49.2c-32.8-7.7-66.7-5.5-98,6.6
	c-3.3,1.3-5.3,4.2-5.8,7.5c1.3,1.9,3.3,3.1,5.4,3.6C384.7,236.2,386.6,236.1,388.4,235.4L388.4,235.4z"/>
<path class="st1" d="M327.7,551.9c-0.3,0-0.5,0-0.9-0.1c-2-0.5-3.2-2.4-2.7-4.5c5.7-24.1-14.4-34.1-35.5-44.5
	c-19.1-9.5-38.9-19.2-33.9-40.5c0.5-2,2.4-3.2,4.5-2.7c2,0.5,3.2,2.4,2.7,4.5c-3.4,14.5,9.1,21.9,30,32.3
	c10.9,5.4,22.1,10.9,30.1,18.8c9.5,9.5,12.6,20.5,9.4,34C330.9,550.7,329.5,551.9,327.7,551.9L327.7,551.9z"/>
<path class="st2" d="M251.2,427.9c-3.4,0-6.7-0.4-10-1.2c-11.3-2.7-20.9-9.6-27.1-19.5c-6.1-9.9-8-21.6-5.4-33
	c4.7-19.8,22.1-33.6,42.4-33.6c3.4,0,6.7,0.4,10,1.2c23.4,5.5,38,29.1,32.4,52.4C289,414.1,271.5,427.9,251.2,427.9L251.2,427.9z"/>
<path class="st1" d="M251.2,347.9c2.7,0,5.5,0.3,8.4,0.9c19.5,4.6,31.6,24.2,27,43.8c-3.9,16.7-18.9,28-35.4,28
	c-2.7,0-5.5-0.3-8.4-0.9c-19.5-4.6-31.6-24.2-27-43.8C219.7,359.2,234.7,347.9,251.2,347.9 M251.2,333.4v14.5V333.4
	c-11.2,0-22.4,3.8-31.3,10.8c-9.1,7.1-15.5,17.2-18.1,28.4c-6.4,27.3,10.5,54.7,37.8,61.2c3.8,0.9,7.7,1.3,11.7,1.3
	c11.2,0,22.4-3.8,31.3-10.8c9.1-7.1,15.5-17.2,18.1-28.4c6.4-27.3-10.5-54.7-37.8-61.2C259,333.9,255.1,333.4,251.2,333.4
	L251.2,333.4z"/>
<path class="st2" d="M269.1,464.1c-2,0-4.1-0.2-6.1-0.7l-12.4-3c-6.9-1.6-12.7-5.9-16.5-11.9s-4.9-13.1-3.3-20.1l21.9-92.9
	c2.8-12,13.4-20.5,25.9-20.5c2,0,4.1,0.2,6.1,0.7l12.4,3c6.9,1.6,12.7,5.9,16.5,11.9s4.9,13.1,3.3,20.1L295,443.6
	C292.1,455.6,281.5,464.1,269.1,464.1z"/>
<path class="st1" d="M278.5,322.4c1.5,0,3,0.2,4.5,0.5l12.4,3c10.4,2.4,16.8,12.8,14.4,23.2L287.9,442c-2.1,8.9-10,14.9-18.8,14.9
	c-1.5,0-3-0.2-4.5-0.5l-12.4-3c-10.4-2.4-16.8-12.8-14.4-23.2l21.9-92.9C261.8,328.4,269.8,322.4,278.5,322.4 M278.5,307.9v14.5
	V307.9c-7.5,0-14.9,2.6-20.8,7.2c-6,4.7-10.3,11.4-12,18.9l-21.9,92.9c-2,8.8-0.6,17.8,4.1,25.5c4.8,7.7,12.2,13,21,15.1l12.4,3
	c2.6,0.6,5.2,0.9,7.7,0.9c7.5,0,14.9-2.6,20.8-7.2c6-4.7,10.3-11.4,12-18.9l21.9-92.9c4.3-18.1-7-36.3-25.2-40.6l-12.4-3
	C283.7,308.2,281.1,307.9,278.5,307.9L278.5,307.9z"/>
<path class="st3" d="M264.8,456.3l-4-0.9c-10.3-2.4-16.7-12.8-14.3-23.1l18.8-79.8c2.4-10.3,12.8-16.7,23.1-14.3l4,0.9
	c10.3,2.4,16.7,12.8,14.3,23.1L287.9,442C285.5,452.3,275.1,458.8,264.8,456.3z"/>
<path class="st1" d="M465.5,584.3c-0.3,0-0.5,0-0.9-0.1c-2-0.5-3.2-2.4-2.7-4.5c3.1-13.4,10.9-22,23.6-26.2
	c10.6-3.5,23.2-3.5,35.3-3.4c23.4,0.1,37.8-0.9,41.2-15.5c0.5-2,2.4-3.2,4.5-2.7c2,0.5,3.2,2.4,2.7,4.5c-5,21.3-27,21.3-48.4,21.2
	c-23.7-0.1-46-0.2-51.7,24C468.8,583.1,467.3,584.3,465.5,584.3L465.5,584.3z"/>
<path class="st2" d="M607.3,511.7c-3.4,0-6.7-0.4-10-1.2c-11.3-2.7-20.9-9.6-27.1-19.5s-8-21.6-5.4-33c4.7-19.8,22.1-33.6,42.4-33.6
	c3.4,0,6.7,0.4,10,1.2c11.3,2.7,20.9,9.6,27.1,19.5c6.2,9.9,8,21.6,5.4,33C645,497.9,627.6,511.7,607.3,511.7z"/>
<path class="st1" d="M607.2,431.7c2.7,0,5.5,0.3,8.4,0.9c19.5,4.6,31.6,24.2,27,43.8c-3.9,16.7-18.9,28-35.4,28
	c-2.7,0-5.5-0.3-8.4-0.9c-19.5-4.6-31.6-24.2-27-43.8C575.8,443,590.7,431.7,607.2,431.7 M607.2,417.3c-11.2,0-22.4,3.8-31.3,10.8
	c-9.1,7.1-15.5,17.2-18.1,28.4c-3.1,13.2-0.9,26.9,6.2,38.4c7.1,11.6,18.4,19.6,31.6,22.7c3.8,0.9,7.7,1.3,11.7,1.3
	c11.2,0,22.4-3.8,31.3-10.8c9.1-7.1,15.5-17.2,18.1-28.4c3.1-13.2,0.9-26.9-6.2-38.4c-7.1-11.6-18.4-19.6-31.6-22.7
	C615,417.7,611.1,417.3,607.2,417.3z"/>
<path class="st2" d="M579.9,537.2c-2,0-4.1-0.2-6.1-0.7l-12.4-3c-6.9-1.6-12.7-5.9-16.5-11.9s-4.9-13.1-3.3-20.1l21.9-92.9
	c2.8-12,13.4-20.5,25.9-20.5c2,0,4.1,0.2,6.1,0.7l12.4,3c6.9,1.6,12.7,5.9,16.5,11.9s4.9,13.1,3.3,20.1l-21.9,92.9
	C602.9,528.7,592.3,537.2,579.9,537.2L579.9,537.2z"/>
<path class="st1" d="M589.2,395.5c1.5,0,3,0.2,4.5,0.5l12.4,3c10.4,2.4,16.8,12.8,14.4,23.2l-21.9,92.9c-2.1,8.9-10,14.9-18.8,14.9
	c-1.5,0-3-0.2-4.5-0.5l-12.4-3c-10.4-2.4-16.8-12.8-14.4-23.2l21.9-92.9C572.6,401.6,580.5,395.5,589.2,395.5 M589.2,381.1
	c-7.5,0-14.9,2.6-20.8,7.2c-6,4.7-10.3,11.4-12,18.9l-21.9,92.9c-2,8.8-0.6,17.8,4.1,25.5c4.8,7.7,12.2,13,21,15.1l12.4,3
	c2.6,0.6,5.2,0.9,7.7,0.9c7.5,0,14.9-2.6,20.8-7.2c6-4.7,10.3-11.4,12-18.9l21.9-92.9c4.3-18.1-7-36.3-25.2-40.6l-12.4-3
	C594.5,381.4,591.9,381.1,589.2,381.1L589.2,381.1z"/>
<path class="st3" d="M562.9,526.5l4,0.9c10.3,2.4,20.7-4,23.1-14.3l18.8-79.8c2.4-10.3-4-20.7-14.3-23.1l-4-0.9
	c-10.3-2.4-20.7,4-23.1,14.3l-18.8,79.8C546.2,513.8,552.6,524.1,562.9,526.5z"/>
</svg>
