<?xml version="1.0" encoding="UTF-8"?>
<svg xmlns="http://www.w3.org/2000/svg" viewBox="0 0 40.91 48.11">
  <defs>
    <style>
      .cls-1 {
        isolation: isolate;
      }

      .cls-1, .cls-2 {
        fill: none;
      }

      .cls-3 {
        fill: #6c757d;
      }

      .cls-2 {
        mix-blend-mode: soft-light;
        opacity: .99;
      }
    </style>
  </defs>
  <g class="cls-1">
    <g id="Layer_1" data-name="Layer 1">
      <g>
        <path class="cls-3" d="m40.24,44.46s.49-11.98-19.66-14.98l-9.17-2.33c-1.03-.26-2.02-.68-2.95-1.26C5.72,24.19.71,20.18.22,13.31.22,13.31-.44,4.91.53,0c0,0,3.53,14.19,13.88,19.67,0,0,15.19,4.72,17.07,6.27,0,0,7.29,5.09,8.78,9.66,0,0,1.49,4.57,0,8.87Z"/>
        <path class="cls-3" d="m10.48,29.62s-2.08,9.59,6.52,9.81c0,0,11.77,1.06,14.15,2.68,0,0,5.78,2.05,5.96,6.01,0,0,2.03-1.06-.92-7.67,0,0-1.62-4.91-14.24-7.4,0,0-9.57-2.09-11.47-3.43Z"/>
      </g>
      <g class="cls-2">
        <path class="cls-3" d="m40.24,44.46s.49-11.98-19.66-14.98l-9.17-2.33c-1.03-.26-2.02-.68-2.95-1.26C5.72,24.19.71,20.18.22,13.31.22,13.31-.44,4.91.53,0c0,0,3.53,14.19,13.88,19.67,0,0,15.19,4.72,17.07,6.27,0,0,7.29,5.09,8.78,9.66,0,0,1.49,4.57,0,8.87Z"/>
        <path class="cls-3" d="m10.48,29.62s-2.08,9.59,6.52,9.81c0,0,11.77,1.06,14.15,2.68,0,0,5.78,2.05,5.96,6.01,0,0,2.03-1.06-.92-7.67,0,0-1.62-4.91-14.24-7.4,0,0-9.57-2.09-11.47-3.43Z"/>
      </g>
    </g>
  </g>
</svg>