<?xml version="1.0" encoding="UTF-8"?>
<svg xmlns="http://www.w3.org/2000/svg" xmlns:xlink="http://www.w3.org/1999/xlink" viewBox="0 0 41.1 47.9">
  <defs>
    <style>
      .cls-1 {
        fill: url(#radial-gradient);
      }

      .cls-2 {
        isolation: isolate;
      }

      .cls-2, .cls-3 {
        fill: none;
      }

      .cls-4 {
        fill: url(#radial-gradient-2);
      }

      .cls-3 {
        mix-blend-mode: soft-light;
        opacity: .99;
      }

      .cls-5 {
        fill: #fca311;
      }
    </style>
    <radialGradient id="radial-gradient" cx="118" cy="-10.27" fx="118" fy="-10.27" r="226.61" gradientUnits="userSpaceOnUse">
      <stop offset="0" stop-color="#fff"/>
      <stop offset="1" stop-color="#3f3f3f"/>
    </radialGradient>
    <radialGradient id="radial-gradient-2" cx="118" cy="-10.27" fx="118" fy="-10.27" r="226.61" xlink:href="#radial-gradient"/>
  </defs>
  <g class="cls-2">
    <g id="Layer_1" data-name="Layer 1">
      <g>
        <path class="cls-5" d="m40.46,44.24s.42-11.98-19.74-14.87l-9.19-2.28c-1.03-.26-2.03-.67-2.96-1.25C5.82,24.16.79,20.18.25,13.32.25,13.32-.45,4.92.49,0c0,0,3.61,14.17,13.99,19.59,0,0,15.22,4.63,17.1,6.17,0,0,7.32,5.05,8.83,9.61,0,0,1.51,4.56.04,8.87Z"/>
        <path class="cls-5" d="m10.61,29.56s-2.03,9.6,6.57,9.77c0,0,11.78.99,14.17,2.6,0,0,5.79,2.02,6,5.98,0,0,2.02-1.07-.97-7.67,0,0-1.64-4.9-14.28-7.31,0,0-9.58-2.04-11.49-3.36Z"/>
      </g>
      <g class="cls-3">
        <path class="cls-1" d="m40.46,44.24s.42-11.98-19.74-14.87l-9.19-2.28c-1.03-.26-2.03-.67-2.96-1.25C5.82,24.16.79,20.18.25,13.32.25,13.32-.45,4.92.49,0c0,0,3.61,14.17,13.99,19.59,0,0,15.22,4.63,17.1,6.17,0,0,7.32,5.05,8.83,9.61,0,0,1.51,4.56.04,8.87Z"/>
        <path class="cls-4" d="m10.61,29.56s-2.03,9.6,6.57,9.77c0,0,11.78.99,14.17,2.6,0,0,5.79,2.02,6,5.98,0,0,2.02-1.07-.97-7.67,0,0-1.64-4.9-14.28-7.31,0,0-9.58-2.04-11.49-3.36Z"/>
      </g>
    </g>
  </g>
</svg>