<?xml version="1.0" encoding="utf-8"?>
<!-- Generator: Adobe Illustrator 27.6.1, SVG Export Plug-In . SVG Version: 6.00 Build 0)  -->
<svg version="1.1" id="Layer_1" xmlns="http://www.w3.org/2000/svg" xmlns:xlink="http://www.w3.org/1999/xlink" x="0px" y="0px"
	 viewBox="0 0 800 800" style="enable-background:new 0 0 800 800;" xml:space="preserve">
<style type="text/css">
	.st0{fill:#A0A0A0;}
	.st1{fill:#2D2D40;}
	.st2{fill:#FFFFFF;}
	.st3{fill:#FFC13E;}
</style>
<path class="st0" d="M228.2,283.5C-64.8,347.8,128.6,785.9,504,672S678.8,71.2,467.4,53.4S382.5,249.7,228.2,283.5L228.2,283.5z"/>
<path class="st1" d="M323.4,545.1l70.4-70.4c7-7,10.9-16.4,10.9-26.3c0-8.9-3.1-17.3-8.8-24.1l22.9-22.9c25,20,55.9,30.9,88.4,30.9
	c37.9,0,73.5-14.8,100.2-41.5c26.8-26.8,41.5-62.3,41.5-100.2s-14.8-73.5-41.5-100.2c-26.8-26.8-62.3-41.5-100.2-41.5
	s-73.5,14.8-100.2,41.5c-26.8,26.8-41.5,62.3-41.5,100.2c0,32.5,10.9,63.4,30.9,88.4l-22.9,22.9c-6.7-5.7-15.2-8.8-24.1-8.8
	c-9.9,0-19.3,3.9-26.3,10.9l-70.5,70.2c-7,7-10.9,16.4-10.9,26.3s3.9,19.3,10.9,26.3l18.1,18.1c7,7,16.4,10.9,26.3,10.9
	C307,555.9,316.4,552,323.4,545.1L323.4,545.1z"/>
<path class="st2" d="M421.1,204.4c23-23,53.5-35.7,86.1-35.7c32.5,0,63,12.7,86.1,35.7c23,23,35.6,53.5,35.6,86.1
	c0,32.5-12.7,63-35.7,86.1c-23,23-53.5,35.7-86.1,35.7c-32.5,0-63-12.7-86.1-35.7c-23-23-35.7-53.5-35.7-86.1
	C385.5,257.9,398.1,227.3,421.1,204.4L421.1,204.4z"/>
<path class="st3" d="M526,205.5c-29.4,0-57,11.4-77.7,32.2c-20.8,20.8-32.2,48.4-32.2,77.7c0,19.1,4.8,37.5,14,53.8
	c20.7,20.5,48.1,31.7,77.3,31.7c29.4,0,57-11.4,77.7-32.2c20.8-20.8,32.2-48.4,32.2-77.7c0-19.1-4.8-37.5-14-53.7
	C582.5,216.7,555.2,205.5,526,205.5L526,205.5z"/>
<path class="st2" d="M293.3,536.6l-35.2-34.4c-1.2-1.2-1.9-2.8-1.9-4.5c0-0.9,0.2-2.9,1.9-4.5l83.1-83.1c1.6-1.6,3.5-1.9,4.5-1.9
	s2.9,0.2,4.5,1.9l35.2,34.4c1.6,1.6,1.9,3.5,1.9,4.5c0,0.9-0.2,2.9-1.9,4.5l-83.1,83.1c-1.2,1.2-2.8,1.9-4.5,1.9
	C296.7,538.4,294.8,538.2,293.3,536.6L293.3,536.6z"/>
<path class="st0" d="M344.1,422.9c-0.9,0-2.8,0.2-4.5,1.9L264.3,500l28.9,28.1c1.6,1.6,3.4,1.9,4.5,1.9c0.9,0,2.8-0.2,4.5-1.9
	l75.2-75.2l-28.9-28.1C347,423.1,345,422.9,344.1,422.9z"/>
</svg>
