<?xml version="1.0" encoding="utf-8"?>
<!-- Generator: Adobe Illustrator 27.6.1, SVG Export Plug-In . SVG Version: 6.00 Build 0)  -->
<svg version="1.1" id="Layer_1" xmlns="http://www.w3.org/2000/svg" xmlns:xlink="http://www.w3.org/1999/xlink" x="0px" y="0px"
	 viewBox="0 0 800 800" style="enable-background:new 0 0 800 800;" xml:space="preserve">
<style type="text/css">
	.st0{fill:#A0A0A0;}
	.st1{fill:#151B28;}
	.st2{fill:#FFFFFF;}
	.st3{fill:#FFC13E;}
</style>
<path class="st0" d="M572,312C417.7,278.1,544.1,64.1,332.7,81.9s-411.9,504.5-36.6,618.5S864.9,376.2,572,312z"/>
<path class="st0" d="M421.5,655.3c-1.1,0-2.3-0.2-3.3-0.8l-160.3-84c-3.4-1.8-4.8-6-3-9.4l0,0l158.4-302.4c1.2-2.3,3.6-3.8,6.2-3.7
	c1.1,0,2.3,0.2,3.3,0.8l160.3,84c3.4,1.8,4.8,6,3,9.5L427.7,651.6C426.5,653.9,424.1,655.3,421.5,655.3z"/>
<path class="st1" d="M419.5,262l160.3,84L421.5,648.3l-160.3-83.9L419.5,262 M419.5,248c-1.4,0-2.8,0.2-4.1,0.6
	c-3.5,1.1-6.5,3.6-8.2,6.9L248.8,557.9c-3.6,6.8-1,15.3,5.9,18.9l0,0l160.3,84c2,1.1,4.2,1.6,6.5,1.6c1.4,0,2.8-0.2,4.1-0.6
	c3.5-1.1,6.5-3.6,8.2-6.9l158.4-302.5c3.6-6.8,0.9-15.3-5.9-18.8l-160.3-84C424.1,248.5,421.8,248,419.5,248z"/>
<path class="st2" d="M420.6,652.7c-0.8,0-1.6-0.2-2.3-0.4l-198.4-68c-3.7-1.3-5.6-5.2-4.4-8.9l0,0L343.7,201c1-2.9,3.7-4.8,6.6-4.8
	c0.8,0,1.5,0.2,2.3,0.4l198.4,68c1.7,0.6,3.2,1.9,4,3.5s0.9,3.6,0.3,5.3L427.3,648c-0.6,1.7-1.9,3.2-3.5,4
	C422.7,652.5,421.7,652.7,420.6,652.7L420.6,652.7z"/>
<path class="st1" d="M350.5,203.4l198.4,68L420.6,645.7l-198.4-68L350.5,203.4 M350.5,189.5c-2.1,0-4.2,0.5-6.2,1.4
	c-3.3,1.6-5.9,4.5-7.1,8L209,573.2c-2.5,7.3,1.4,15.2,8.7,17.7l198.4,68c1.5,0.5,3,0.8,4.5,0.8c2.1,0,4.2-0.5,6.2-1.4
	c3.4-1.6,5.9-4.5,7.1-8l128.2-374.4c2.5-7.3-1.4-15.2-8.7-17.7l-198.4-68C353.5,189.7,352,189.5,350.5,189.5L350.5,189.5z"/>
<path class="st2" d="M350.5,252.3c-5.4,0-10.7-0.9-15.9-2.7c-1.7-0.6-3.2-1.9-4-3.5s-0.9-3.6-0.3-5.3l13.6-39.7
	c1-2.9,3.7-4.8,6.6-4.8c0.8,0,1.5,0.2,2.3,0.4l39.7,13.6c1.7,0.6,3.2,1.9,4,3.5s0.9,3.6,0.3,5.3C390,239,371.4,252.3,350.5,252.3z"
	/>
<path class="st1" d="M350.5,203.4l39.7,13.6c-5.8,16.9-21.8,28.3-39.7,28.4c-4.5,0-9.1-0.7-13.6-2.3L350.5,203.4 M350.5,189.5
	c-5.8,0-11.2,3.7-13.2,9.5l-13.6,39.7c-1.2,3.5-0.9,7.3,0.7,10.7s4.5,5.9,8,7.1c5.9,2,12,3,18.1,3c23.9,0,45.1-15.2,52.9-37.8
	c1.2-3.5,0.9-7.3-0.7-10.7c-1.6-3.3-4.5-5.9-8-7.1L355,190.2C353.4,189.7,352,189.5,350.5,189.5L350.5,189.5z"/>
<path class="st2" d="M535.2,318c-0.8,0-1.6-0.2-2.3-0.4c-25.6-8.8-39.2-36.6-30.5-62.2c1-2.9,3.7-4.8,6.6-4.8c0.8,0,1.5,0.2,2.3,0.4
	l39.7,13.6c3.7,1.2,5.6,5.2,4.4,8.9l-13.6,39.7c-0.6,1.7-1.9,3.2-3.5,4C537.3,317.8,536.3,318,535.2,318z"/>
<path class="st1" d="M509.1,257.8l39.7,13.6l-13.6,39.7C513.3,303.6,501.7,279.7,509.1,257.8 M509.1,243.8c-2.1,0-4.2,0.5-6.2,1.4
	c-3.3,1.6-5.9,4.5-7.1,8c-10,29.1,5.6,61,34.8,71c1.5,0.5,3,0.8,4.5,0.8c5.8,0,11.3-3.7,13.2-9.5l13.6-39.7
	c1.2-3.5,0.9-7.3-0.7-10.7c-1.6-3.3-4.5-5.9-8-7.1l-39.5-13.6C512.3,244.1,510.7,243.8,509.1,243.8L509.1,243.8z"/>
<path class="st2" d="M262,598.4c-0.8,0-1.6-0.2-2.3-0.4L220,584.4c-1.7-0.6-3.2-1.9-4-3.5s-0.9-3.6-0.3-5.3l13.6-39.7
	c0.6-1.7,1.9-3.2,3.5-4c1.7-0.8,3.6-0.9,5.3-0.3c25.6,8.8,39.2,36.6,30.5,62.2c-0.6,1.7-1.9,3.2-3.5,4
	C264.1,598.1,263,598.4,262,598.4L262,598.4z"/>
<path class="st1" d="M235.9,538.1c22,7.5,33.6,31.3,26.1,53.3l-39.7-13.6L235.9,538.1 M235.9,524.1c-2.1,0-4.2,0.5-6.2,1.4
	c-3.3,1.6-5.9,4.5-7.1,8L209,573.3c-2.5,7.3,1.4,15.2,8.7,17.7l39.7,13.6c1.5,0.5,3,0.8,4.5,0.8c2.1,0,4.2-0.5,6.2-1.4
	c3.4-1.6,5.9-4.5,7.1-8c4.8-14.1,3.9-29.3-2.7-42.7s-18-23.4-32.1-28.3C238.9,524.4,237.3,524.1,235.9,524.1z"/>
<path class="st2" d="M420.6,652.7c-0.8,0-1.5-0.2-2.3-0.4l-39.7-13.6c-1.7-0.6-3.2-1.9-4-3.5s-0.9-3.6-0.3-5.3
	c6.8-19.8,25.3-33.1,46.3-33.1c5.4,0,10.8,0.9,15.9,2.7c1.7,0.6,3.2,1.9,4,3.5s0.9,3.6,0.3,5.3L427.3,648
	C426.3,650.8,423.6,652.7,420.6,652.7L420.6,652.7z"/>
<path class="st1" d="M420.6,603.8c4.5,0,9.1,0.7,13.7,2.3l-13.6,39.7L381,632.1C386.8,615.2,402.7,603.8,420.6,603.8 M420.6,589.8
	v14V589.8c-23.9,0-45.1,15.2-52.9,37.8c-2.5,7.3,1.4,15.2,8.7,17.7l39.7,13.6c1.5,0.5,3,0.8,4.5,0.8c2.1,0,4.2-0.5,6.2-1.4
	c3.4-1.6,5.9-4.5,7.1-8l13.6-39.7c2.5-7.3-1.4-15.2-8.7-17.7C432.9,590.8,426.8,589.8,420.6,589.8L420.6,589.8z"/>
<path class="st2" d="M385.6,540.9c-12.8,0-25.5-2.1-37.7-6.3c-0.8-0.3-1.7-0.5-2.7-1c-46.6-17.1-77.2-62.1-75.9-111.7
	c0-0.6,0.2-1.3,0.3-1.9l21.6-63c0.2-0.6,0.5-1.2,0.9-1.7c21.8-29.5,56.8-47.1,93.5-47.1c12.8,0,25.5,2.1,37.7,6.3
	c40.2,13.8,69.7,48.4,76.9,90.2c1.3,7.4,2,15,1.8,22.5c0,0.6-0.2,1.2-0.3,1.9l-21.6,63c-0.2,0.6-0.5,1.2-0.9,1.7
	C457.3,523.3,422.3,540.9,385.6,540.9L385.6,540.9z"/>
<path class="st1" d="M385.5,314.5c11.8,0,23.8,2,35.6,5.9c39.3,13.4,66.1,47,72.7,85.3c1.2,7,1.9,14.1,1.7,21.2L474,490
	c-20.8,28-53.5,44.5-88.4,44.6c-11.8,0-23.8-2-35.7-5.9c-0.8-0.2-1.6-0.5-2.3-0.9c-0.1,0-0.2-0.1-0.2-0.1
	c-45.1-16.6-72.9-59.8-71.8-105.6l21.6-63C317.8,331.1,350.9,314.5,385.5,314.5 M385.5,301.8c-38.8,0-75.6,18.6-98.7,49.7
	c-0.8,1-1.4,2.2-1.8,3.4l-21.6,63c-0.4,1.2-0.6,2.5-0.7,3.8c-1.2,52.3,30.9,99.6,79.9,117.7l3,1.2c12.9,4.5,26.2,6.6,39.8,6.6
	c38.8,0,75.5-18.6,98.6-49.7c0.8-1,1.4-2.2,1.8-3.4l21.6-63c0.4-1.2,0.6-2.5,0.7-3.8c0.2-7.9-0.5-15.9-1.9-23.8
	c-7.6-44.1-38.7-80.6-81.1-95.1C412.4,304.1,399.1,301.8,385.5,301.8L385.5,301.8z"/>
<path class="st3" d="M495.5,427L474,490c-27.7,37.5-77.5,54.5-124.1,38.6c-0.8-0.2-1.6-0.5-2.3-0.9c-0.1,0-0.2-0.1-0.2-0.1
	c-33.7-24.8-49.1-69.5-34.8-111.1c17.6-51.3,73.4-78.7,124.7-61.2c24.9,8.5,45.3,26.6,56.6,50.3C495.2,412.7,495.7,419.9,495.5,427
	L495.5,427z"/>
<path d="M356.6,388.2c-8.6,4.2-14.1,8.4-17.4,18.2c-3.7,11,1,20.7,11.3,24.2c26.6,9.1,35.7-42.8,73.8-29.8
	c16.6,5.7,24.3,20.1,20.9,37.3l17.4,5.9l-3.3,9.5l-17.3-5.9c-5,10.9-14.5,20.1-23.7,25l-6.7-9.1c8.9-5,17.3-12.1,21-23.1
	c4.6-13.5-0.4-22.9-11.8-26.8c-29.8-10.2-39.6,41.5-74.1,29.6c-15.4-5.2-23-19.5-20.1-35.1l-17.4-5.9l3.3-9.5l17.3,5.9
	c4.9-10.8,12.7-16.2,21.4-20L356.6,388.2L356.6,388.2z"/>
</svg>
