<?xml version="1.0" encoding="UTF-8"?>
<svg xmlns="http://www.w3.org/2000/svg" version="1.1" xmlns:xlink="http://www.w3.org/1999/xlink" viewBox="0 0 1366 489">
  <!-- Generator: Adobe Illustrator 30.2.1, SVG Export Plug-In . SVG Version: 2.1.1 Build 1)  -->
  <defs>
    <style>
      .st0 {
        fill: #fff;
      }

      .st1 {
        isolation: isolate;
      }

      .st2 {
        fill: url(#radial-gradient1);
      }

      .st2, .st3, .st4 {
        mix-blend-mode: soft-light;
        opacity: .99;
      }

      .st5 {
        fill: #fca311;
      }

      .st3 {
        fill: url(#radial-gradient);
      }

      .st4 {
        fill: url(#radial-gradient2);
      }
    </style>
    <radialGradient id="radial-gradient" cx="543.55" cy="4.74" fx="543.55" fy="4.74" r="906.4" gradientUnits="userSpaceOnUse">
      <stop offset="0" stop-color="#fff"/>
      <stop offset="1" stop-color="#3f3f3f"/>
    </radialGradient>
    <radialGradient id="radial-gradient1" cx="543.55" cy="4.74" fx="543.55" fy="4.74" r="906.4" xlink:href="#radial-gradient"/>
    <radialGradient id="radial-gradient2" cx="543.55" cy="4.74" fx="543.55" fy="4.74" r="906.4" xlink:href="#radial-gradient"/>
  </defs>
  <g class="st1">
    <g id="Layer_1">
      <g>
        <path class="st5" d="M135.39,230.42c-50.79,0-92.12,41.48-92.12,92.46s41.33,92.12,92.12,92.12c23.55,0,45.83-8.83,62.76-24.57v19.77c0,2.65,2.15,4.8,4.8,4.8h20.1c2.65,0,4.8-2.15,4.8-4.8v-87.32c0-50.98-41.48-92.46-92.47-92.46ZM135.39,385.64c-34.61,0-62.76-28.15-62.76-62.76s28.15-62.76,62.76-62.76,62.76,28.15,62.76,62.76-28.15,62.76-62.76,62.76Z"/>
        <path class="st5" d="M336.13,182.96c-9.12-5.56-18.23-8.31-28.83-8.67-29.01,0-52.62,23.76-52.62,52.97v182.95c0,2.65,2.15,4.8,4.8,4.8h19.75c2.65,0,4.8-2.15,4.8-4.8v-130.33h29.85c2.65,0,4.8-2.15,4.8-4.8v-19.75c0-2.65-2.15-4.8-4.8-4.8h-29.85v-24.3c0-12.25,10.43-22.22,23.26-22.22,5.12,0,12.13,2.69,15.31,5.87.91.91,2.14,1.41,3.4,1.41.33,0,.65-.03.98-.1,1.59-.33,2.9-1.44,3.49-2.95l7.62-19.4c.85-2.17.02-4.65-1.97-5.86Z"/>
        <path class="st5" d="M431.3,182.96c-9.12-5.56-18.23-8.31-28.83-8.67-29.01,0-52.62,23.76-52.62,52.97v182.95c0,2.65,2.15,4.8,4.8,4.8h19.75c2.65,0,4.8-2.15,4.8-4.8v-130.33h29.84c2.65,0,4.8-2.15,4.8-4.8v-19.75c0-2.65-2.15-4.8-4.8-4.8h-29.84v-24.3c0-12.25,10.43-22.22,23.26-22.22,5.12,0,12.13,2.69,15.31,5.87.91.91,2.14,1.41,3.4,1.41.33,0,.65-.03.98-.1,1.59-.33,2.9-1.44,3.49-2.95l7.62-19.4c.85-2.17.02-4.65-1.97-5.86Z"/>
        <g>
          <path class="st3" d="M135.39,230.42c-50.79,0-92.12,41.48-92.12,92.46s41.33,92.12,92.12,92.12c23.55,0,45.83-8.83,62.76-24.57v19.77c0,2.65,2.15,4.8,4.8,4.8h20.1c2.65,0,4.8-2.15,4.8-4.8v-87.32c0-50.98-41.48-92.46-92.47-92.46ZM135.39,385.64c-34.61,0-62.76-28.15-62.76-62.76s28.15-62.76,62.76-62.76,62.76,28.15,62.76,62.76-28.15,62.76-62.76,62.76Z"/>
          <path class="st2" d="M336.13,182.96c-9.12-5.56-18.23-8.31-28.83-8.67-29.01,0-52.62,23.76-52.62,52.97v182.95c0,2.65,2.15,4.8,4.8,4.8h19.75c2.65,0,4.8-2.15,4.8-4.8v-130.33h29.85c2.65,0,4.8-2.15,4.8-4.8v-19.75c0-2.65-2.15-4.8-4.8-4.8h-29.85v-24.3c0-12.25,10.43-22.22,23.26-22.22,5.12,0,12.13,2.69,15.31,5.87.91.91,2.14,1.41,3.4,1.41.33,0,.65-.03.98-.1,1.59-.33,2.9-1.44,3.49-2.95l7.62-19.4c.85-2.17.02-4.65-1.97-5.86Z"/>
          <path class="st4" d="M431.3,182.96c-9.12-5.56-18.23-8.31-28.83-8.67-29.01,0-52.62,23.76-52.62,52.97v182.95c0,2.65,2.15,4.8,4.8,4.8h19.75c2.65,0,4.8-2.15,4.8-4.8v-130.33h29.84c2.65,0,4.8-2.15,4.8-4.8v-19.75c0-2.65-2.15-4.8-4.8-4.8h-29.84v-24.3c0-12.25,10.43-22.22,23.26-22.22,5.12,0,12.13,2.69,15.31,5.87.91.91,2.14,1.41,3.4,1.41.33,0,.65-.03.98-.1,1.59-.33,2.9-1.44,3.49-2.95l7.62-19.4c.85-2.17.02-4.65-1.97-5.86Z"/>
          <g>
            <path class="st0" d="M233.4,222.75s1.69-47.92-78.97-59.47l-36.75-9.11c-4.13-1.02-8.1-2.69-11.84-4.98-10.99-6.72-31.11-22.65-33.25-50.1,0,0-2.81-33.59.96-53.26,0,0,14.45,56.69,55.95,78.36,0,0,60.88,18.53,68.4,24.7,0,0,29.27,20.18,35.33,38.42,0,0,6.06,18.24.17,35.46Z"/>
            <path class="st0" d="M113.99,164.05s-8.11,38.39,26.28,39.07c0,0,47.1,3.97,56.66,10.39,0,0,23.16,8.06,23.99,23.92,0,0,8.09-4.27-3.87-30.66,0,0-6.57-19.61-57.12-29.26,0,0-38.31-8.16-45.95-13.46Z"/>
          </g>
        </g>
        <g>
          <path class="st0" d="M532.06,281.83c21.56,0,40.61,12.05,49.72,31.45.92,1.97,2.88,3.13,4.93,3.13.71,0,1.43-.14,2.12-.43l16.06-6.79c1.35-.57,2.41-1.66,2.95-3.02s.5-2.88-.1-4.22c-13.32-29.71-43.02-48.91-75.67-48.91-45.91,0-83.25,37.49-83.25,83.56s37.35,83.25,83.25,83.25c32.4,0,62.09-19.06,75.65-48.56.61-1.32.66-2.84.15-4.2s-1.56-2.46-2.89-3.05l-16.06-7.1c-.72-.32-1.46-.47-2.2-.47-2.06,0-4.03,1.17-4.94,3.16-9.06,19.57-28.1,31.73-49.71,31.73-30.03,0-54.45-24.57-54.45-54.76s24.43-54.76,54.45-54.76Z"/>
          <path class="st0" d="M714.36,253.04c-45.91,0-83.25,37.49-83.25,83.56s37.35,83.25,83.25,83.25,83.56-37.35,83.56-83.25-37.49-83.56-83.56-83.56ZM714.36,391.36c-30.2,0-54.76-24.57-54.76-54.76s24.57-54.76,54.76-54.76,54.76,24.57,54.76,54.76-24.57,54.76-54.76,54.76Z"/>
          <path class="st0" d="M880.75,253.98l-2.28-.2c-2.61-.24-4.86-.44-7.74-.44-25.91,0-46.2,21.11-46.2,48.05v113.01c0,3.01,2.44,5.45,5.45,5.45h17.6c3.01,0,5.45-2.44,5.45-5.45,0-30.14,0-109.95.28-114.87.02-.2.03-.4.03-.61,0-9.77,7.53-17.71,16.78-17.71,1.54,0,2.9.21,4.68.72.49.14.99.21,1.49.21.96,0,1.92-.26,2.76-.75,1.29-.76,2.2-2.01,2.54-3.46l4.01-17.29c.36-1.54.03-3.16-.9-4.44-.93-1.28-2.37-2.09-3.95-2.22Z"/>
          <path class="st0" d="M971.21,253.04h-.67c-33.23.33-69,22.36-69,69.98v91.39c0,3.01,2.44,5.45,5.45,5.45h17.6c1.45,0,2.84-.58,3.86-1.61,1.02-1.03,1.59-2.42,1.58-3.87l-.62-91.29c.81-25.06,17.33-41.25,42.1-41.25,22.87,0,41.49,18.61,41.49,41.49v91.08c0,3.01,2.44,5.45,5.45,5.45h17.6c3.01,0,5.45-2.44,5.45-5.45v-91.7c0-47.87-36.43-69.67-70.28-69.67Z"/>
          <path class="st0" d="M1151.35,253.04c-45.91,0-83.25,37.49-83.25,83.56s37.35,83.25,83.25,83.25c32.4,0,62.09-19.06,75.65-48.56,1.25-2.73.06-5.96-2.67-7.22l-16.06-7.41c-.72-.33-1.5-.5-2.28-.5-.65,0-1.29.12-1.91.35-1.36.51-2.46,1.54-3.06,2.87-8.7,19.43-28.2,31.98-49.68,31.98-28.36,0-51.75-21.67-54.49-49.32h132.61c3.01,0,5.45-2.44,5.45-5.45,0-46.08-37.48-83.56-83.56-83.56ZM1101.83,313.24c8.81-18.81,28.21-31.41,49.52-31.41s40.73,12.35,49.76,31.41h-99.28Z"/>
          <path class="st0" d="M1321.69,256.2c-.93-1.28-2.37-2.09-3.95-2.22l-2.28-.2c-2.61-.24-4.86-.44-7.74-.44-25.91,0-46.2,21.11-46.2,48.05v113.01c0,3.01,2.44,5.45,5.45,5.45h17.6c3.01,0,5.45-2.44,5.45-5.45,0-30.15,0-109.96.27-114.87.02-.2.03-.4.03-.6,0-9.77,7.53-17.71,16.79-17.71,1.54,0,2.9.21,4.68.72.49.14.99.21,1.49.21.96,0,1.92-.26,2.76-.75,1.29-.76,2.2-2.01,2.54-3.46l4.01-17.29c.36-1.54.03-3.16-.9-4.44Z"/>
        </g>
      </g>
    </g>
  </g>
</svg>